{"title":"This Week - S13E20 - 2015.02.26 - 468p x264","uid":11725447,"size":494196169,"categoryP":"video","categoryS":"tv_shows","magnet":"?xt=urn:btih:819f97e8a0d08759c85f66f3e8d37168c109c4f0&amp;dn=This+Week+-+S13E20+-+2015.02.26+-+468p+x264&amp;tr=udp%3A%2F%2Ftracker.openbittorrent.com%3A80&amp;tr=udp%3A%2F%2Fopen.demonii.com%3A1337&amp;tr=udp%3A%2F%2Ftracker.coppersurfer.tk%3A6969&amp;tr=udp%3A%2F%2Fexodus.desync.com%3A6969","seeders":1,"leechers":0,"uploader":"rugbybill","files":3,"time":1425026898,"description":"POLITICAL: This Week\nOn: BBC 1 HD     \nDate: Thursday 26th February 2015 \nTime: 23:45 to 00:30 \n\nAndrew Neil looks at MPs and second jobs with author and Conservative MEP Dan Hannan, who thinks being in parliament should come second to another career. The review of the week's films comes from the Mirror's Kevin Maguire, while Nick Hewer, from Countdown and The Apprentice, will look at ethics and morals in business. The panellists are Diane Abbott and Michael Portillo. Miranda Green also joins them to look back on the week. Crack open the Blue Nun and prepare to watch public service broadcasting at its best, talking bazookas with Diane in leather! Sadly no Molly though :(\n\nMiranda Green tweets: &quot;@TobyonTV: Portillo is going to start singing, \n'I got chills, they're multiplying...' #bbctw &quot; Love this pic.\n\nCredits\n\nPresenter:   Andrew Neil\nPanellist:   Michael Portillo\nPanellist:   Diane Abbott\nPanellist:   Miranda Green\nInterviewed Guest:   Dan Hannan\nInterviewed Guest:   Nick Hewer\nReporter:   Kevin Maguire\nEditor:   Vicky Flind\nAssistant Editor:   Richard Garvin\nProduction Manager:   Paula Prynn\nProducer:   Andrew Bradley\nProducer:   James Franklin\nProducer:   Arryn Moy\nAssistant Producer:   Ed Baranski\nDirector:   Barton MacFarlane\nExecutive Producer:   Robbie Gibb\nExecutive Producer:   Samir Shah\nProduction Company:   Juniper TV\n\n\nGeneral\nComplete name                            : This.Week-S13E20-2015.02.26-468p.x264.mp4\nFormat                                   : MPEG-4\nFormat profile                           : Base Media\nCodec ID                                 : isom\nFile size                                : 471 MiB\nDuration                                 : 43mn 49s\nOverall bit rate mode                    : Constant\nOverall bit rate                         : 1 503 Kbps\n\nVideo\nID                                       : 1\nFormat                                   : AVC\nFormat/Info                              : Advanced Video Codec\nFormat profile                           : &lt;a class=&quot;__cf_email__&quot; href=&quot;/cdn-cgi/l/email-protection&quot; data-cfemail=&quot;d39eb2babd939fe0fde2&quot;&gt;[email&amp;#160;protected]&lt;/a&gt;&lt;script cf-hash='f9e31' type=&quot;text/javascript&quot;&gt;\n/* &lt;![CDATA[ */!function(){try{var t=&quot;currentScript&quot;in document?document.currentScript:function(){for(var t=document.getElementsByTagName(&quot;script&quot;),e=t.length;e--;)if(t[e].getAttribute(&quot;cf-hash&quot;))return t[e]}();if(t&amp;&amp;t.previousSibling){var e,r,n,i,c=t.previousSibling,a=c.getAttribute(&quot;data-cfemail&quot;);if(a){for(e=&quot;&quot;,r=parseInt(a.substr(0,2),16),n=2;a.length-n;n+=2)i=parseInt(a.substr(n,2),16)^r,e+=String.fromCharCode(i);e=document.createTextNode(e),c.parentNode.replaceChild(e,c)}}}catch(u){}}();/* ]]&gt; */&lt;/script&gt;\nFormat settings, CABAC                   : Yes\nFormat settings, ReFrames                : 2 frames\nCodec ID                                 : avc1\nCodec ID/Info                            : Advanced Video Coding\nDuration                                 : 43mn 49s\nBit rate mode                            : Constant\nBit rate                                 : 1 404 Kbps\nWidth                                    : 832 pixels\nHeight                                   : 468 pixels\nDisplay aspect ratio                     : 16:9\nFrame rate mode                          : Constant\nFrame rate                               : 25.000 fps\nColor space                              : YUV\nChroma subsampling                       : 4:2:0\nBit depth                                : 8 bits\nScan type                                : Progressive\nBits/(Pixel*Frame)                       : 0.144\nStream size                              : 440 MiB (93%)\n\nAudio\nID                                       : 2\nFormat                                   : AAC\nFormat/Info                              : Advanced Audio Codec\nFormat profile                           : LC\nCodec ID                                 : 40\nDuration                                 : 43mn 49s\nBit rate mode                            : Constant\nBit rate                                 : 93.5 Kbps\nChannel(s)                               : 2 channels\nChannel positions                        : Front: L R\nSampling rate                            : 48.0 KHz\nCompression mode                         : Lossy\nStream size                              : 29.3 MiB (6%)","torrent":{"xt":"urn:btih:819f97e8a0d08759c85f66f3e8d37168c109c4f0","amp;dn":"This+Week+-+S13E20+-+2015.02.26+-+468p+x264","amp;tr":["udp%3A%2F%2Ftracker.openbittorrent.com%3A80","udp%3A%2F%2Fopen.demonii.com%3A1337","udp%3A%2F%2Ftracker.coppersurfer.tk%3A6969","udp%3A%2F%2Fexodus.desync.com%3A6969"],"infoHash":"819f97e8a0d08759c85f66f3e8d37168c109c4f0","infoHashBuffer":{"type":"Buffer","data":[129,159,151,232,160,208,135,89,200,95,102,243,232,211,113,104,193,9,196,240]},"announce":[],"urlList":[]}}